HIERARCHY
ROOT Hips
{
	OFFSET 0.00 0.00 0.00
	CHANNELS 6 Xposition Yposition Zposition Xrotation Yrotation Zrotation
	JOINT Spine
	{
		OFFSET 0.00000 1.15266 1.72900
		CHANNELS 3 Xrotation Yrotation Zrotation
		JOINT Spine1
		{
			OFFSET 0.00000 0.40032 2.27031
			CHANNELS 3 Xrotation Yrotation Zrotation
			JOINT Spine2
			{
				OFFSET 0.00000 0.20092 2.29656
				CHANNELS 3 Xrotation Yrotation Zrotation
				JOINT Spine3
				{
					OFFSET 0.00000 0.00000 2.30533
					CHANNELS 3 Xrotation Yrotation Zrotation
					JOINT Neck
					{
						OFFSET 0.00000 -0.86449 6.05149
						CHANNELS 3 Xrotation Yrotation Zrotation
						JOINT Head
						{
							OFFSET 0.00000 -0.55043 3.12167
							CHANNELS 3 Xrotation Yrotation Zrotation
							End Site
							{
								OFFSET 0.00000 0.00000 3.73175
							}
						}
					}
					JOINT RightShoulder
					{
						OFFSET -0.78828 -1.31380 4.25672
						CHANNELS 3 Xrotation Yrotation Zrotation
						JOINT RightArm
						{
							OFFSET -3.91513 0.00000 0.00000
							CHANNELS 3 Xrotation Yrotation Zrotation
							JOINT RightForeArm
							{
								OFFSET -6.91491 0.00000 0.00000
								CHANNELS 3 Xrotation Yrotation Zrotation
								JOINT RightHand
								{
									OFFSET -6.09622 0.00000 0.00000
									CHANNELS 3 Xrotation Yrotation Zrotation
									JOINT RightHandEnd
									{
										OFFSET -1.74995 0.00000 0.00000
										CHANNELS 3 Xrotation Yrotation Zrotation
										End Site
										{
											OFFSET -1.74995 0.00000 0.00000
										}
									}
									JOINT RightHandThumb1
									{
										OFFSET -0.69998 -1.16663 -0.46665
										CHANNELS 3 Yrotation Xrotation Zrotation
										End Site
										{
											OFFSET -1.69032 -0.45292 0.00000
										}
									}
								}
							}
						}
					}
					JOINT LeftShoulder
					{
						OFFSET 0.78828 -1.31380 4.25672
						CHANNELS 3 Xrotation Yrotation Zrotation
						JOINT LeftArm
						{
							OFFSET 3.91513 0.00000 0.00000
							CHANNELS 3 Xrotation Yrotation Zrotation
							JOINT LeftForeArm
							{
								OFFSET 6.91491 0.00000 0.00000
								CHANNELS 3 Xrotation Yrotation Zrotation
								JOINT LeftHand
								{
									OFFSET 6.09622 0.00000 0.00000
									CHANNELS 3 Xrotation Yrotation Zrotation
									JOINT LeftHandEnd
									{
										OFFSET 1.74995 0.00000 0.00000
										CHANNELS 3 Xrotation Yrotation Zrotation
										End Site
										{
											OFFSET 1.74995 0.00000 0.00000
										}
									}
									JOINT LeftHandThumb1
									{
										OFFSET 0.69998 -1.16663 -0.46665
										CHANNELS 3 Yrotation Xrotation Zrotation
										End Site
										{
											OFFSET 1.69032 -0.45292 0.00000
										}
									}
								}
							}
						}
					}
				}
			}
		}
	}
	JOINT RightUpLeg
	{
		OFFSET -2.33857 0.00000 -0.68318
		CHANNELS 3 Xrotation Yrotation Zrotation
		JOINT RightLeg
		{
			OFFSET 0.00000 0.00000 -10.74496
			CHANNELS 3 Xrotation Yrotation Zrotation
			JOINT RightFoot
			{
				OFFSET 0.00000 0.00000 -10.93085
				CHANNELS 3 Xrotation Yrotation Zrotation
				JOINT RightToeBase
				{
					OFFSET 0.00000 -4.08727 -1.48765
					CHANNELS 3 Xrotation Yrotation Zrotation
					End Site
					{
						OFFSET 0.00000 -1.89187 -0.00000
					}
				}
			}
		}
	}
	JOINT LeftUpLeg
	{
		OFFSET 2.33857 0.00000 -0.68318
		CHANNELS 3 Xrotation Yrotation Zrotation
		JOINT LeftLeg
		{
			OFFSET 0.00000 0.00000 -10.74496
			CHANNELS 3 Xrotation Yrotation Zrotation
			JOINT LeftFoot
			{
				OFFSET 0.00000 0.00000 -10.93085
				CHANNELS 3 Xrotation Yrotation Zrotation
				JOINT LeftToeBase
				{
					OFFSET 0.00000 -4.08727 -1.48765
					CHANNELS 3 Xrotation Yrotation Zrotation
					End Site
					{
						OFFSET 0.00000 -1.89187 -0.00000
					}
				}
			}
		}
	}
}
MOTION
Frames: 14
Frame Time: 0.008342
 1.9144 -2.3818 25.0562 -4.1146 1.5905 170.3502 -0.1489 1.8215 0.3639 0.4850 -1.4908 0.0513 3.7609 4.6381 5.4676 -1.4412 0.0668 0.2850 -5.3347 0.2910 -12.2939 6.7138 -2.8212 -20.6252 -6.9749 -5.9436 -2.9047 -9.0303 -8.1206 1.4989 0.0000 0.0000 12.2834 -10.8340 7.3373 -5.7500 0.0000 0.0000 -0.0000 0.0000 -0.0000 -0.0000 -7.7471 8.5167 4.4471 -3.1640 7.1419 -10.5410 -0.0000 -0.0000 -2.4413 -4.3300 -6.8136 9.7469 -0.0000 -0.0000 -0.0000 -0.0000 0.0000 0.0000 -4.5415 1.2741 -8.7152 4.2007 0.0000 0.0000 -4.7996 1.8409 18.2199 -0.9140 0.0000 -0.0000 -4.0319 -0.2982 1.8504 0.0672 0.0000 0.0000 -3.1661 -0.1404 12.1757 -0.0577 0.0000 -0.0000
 1.9144 -2.3840 25.0563 -4.1248 1.5894 170.3474 -0.1462 1.8211 0.3632 0.4866 -1.4874 0.0520 3.7494 4.6308 5.4662 -1.4413 0.0645 0.2851 -5.3238 0.2893 -12.2938 6.7169 -2.8202 -20.6262 -6.9740 -5.9307 -2.9039 -9.0361 -8.1327 1.4889 0.0000 0.0000 12.2707 -10.8482 7.3388 -5.7400 0.0000 0.0000 0.0000 -0.0000 -0.0000 0.0000 -7.7423 8.5063 4.4437 -3.1587 7.1564 -10.5404 -0.0000 -0.0000 -2.4382 -4.3089 -6.8207 9.7461 -0.0000 0.0000 -0.0000 0.0000 0.0000 0.0000 -4.5553 1.2686 -8.7150 4.1908 0.0000 0.0000 -4.7855 1.8376 18.2135 -0.9181 0.0000 -0.0000 -4.0473 -0.3018 1.8520 0.0671 0.0000 0.0000 -3.1580 -0.1528 12.1774 -0.0550 0.0000 -0.0000
 1.9144 -2.3866 25.0564 -4.1336 1.5875 170.3431 -0.1385 1.8210 0.3618 0.4882 -1.4824 0.0527 3.7350 4.6199 5.4650 -1.4415 0.0615 0.2870 -5.3094 0.2881 -12.2956 6.7209 -2.8202 -20.6277 -6.9749 -5.9102 -2.9041 -9.0408 -8.1517 1.4745 0.0000 0.0000 12.2549 -10.8614 7.3383 -5.7286 0.0000 0.0000 -0.0000 0.0000 -0.0000 -0.0000 -7.7369 8.4887 4.4373 -3.1502 7.1807 -10.5382 -0.0000 -0.0000 -2.4338 -4.2816 -6.8323 9.7471 -0.0000 0.0000 -0.0000 -0.0000 -0.0000 -0.0000 -4.5669 1.2614 -8.7142 4.1760 0.0000 0.0000 -4.7675 1.8332 18.2043 -0.9239 0.0000 -0.0000 -4.0605 -0.3063 1.8542 0.0643 0.0000 0.0000 -3.1474 -0.1648 12.1799 -0.0560 0.0000 -0.0000
 1.9144 -2.3906 25.0564 -4.1601 1.5874 170.3380 -0.1434 1.8184 0.3610 0.4890 -1.4724 0.0548 3.7191 4.6041 5.4616 -1.4420 0.0600 0.2887 -5.2935 0.2838 -12.2972 6.7244 -2.8197 -20.6304 -6.9757 -5.8919 -2.9051 -9.0462 -8.1687 1.4610 0.0000 0.0000 12.2336 -10.8753 7.3330 -5.7154 0.0000 0.0000 -0.0000 0.0000 -0.0000 0.0000 -7.7310 8.4690 4.4291 -3.1402 7.2055 -10.5342 -0.0000 -0.0000 -2.4286 -4.2497 -6.8431 9.7514 0.0000 0.0000 0.0000 0.0000 0.0000 0.0000 -4.6029 1.2526 -8.7125 4.1643 0.0000 0.0000 -4.7465 1.8283 18.1921 -0.9311 0.0000 -0.0000 -4.0987 -0.3125 1.8558 0.0686 0.0000 0.0000 -3.1364 -0.1757 12.1843 -0.0617 0.0000 -0.0000
 1.9145 -2.3941 25.0566 -4.1623 1.5833 170.3311 -0.1221 1.8207 0.3599 0.4922 -1.4689 0.0542 3.6972 4.5928 5.4605 -1.4424 0.0517 0.2911 -5.2726 0.2842 -12.2998 6.7309 -2.8230 -20.6335 -6.9768 -5.8576 -2.9023 -9.0498 -8.1990 1.4376 0.0000 0.0000 12.2115 -10.8864 7.3271 -5.7004 0.0000 -0.0000 -0.0000 -0.0000 -0.0000 0.0000 -7.7229 8.4388 4.4179 -3.1287 7.2453 -10.5255 -0.0000 -0.0000 -2.4223 -4.2101 -6.8574 9.7583 -0.0000 0.0000 -0.0000 0.0000 0.0000 0.0000 -4.6073 1.2426 -8.7137 4.1423 0.0000 0.0000 -4.7220 1.8216 18.1806 -0.9399 0.0000 -0.0000 -4.1043 -0.3190 1.8641 0.0627 0.0000 0.0000 -3.1220 -0.1831 12.1830 -0.0725 0.0000 -0.0000
 1.9148 -2.3986 25.0567 -4.1761 1.5767 170.3251 -0.1093 1.8162 0.3569 0.4975 -1.4528 0.0575 3.6732 4.5677 5.4563 -1.4429 0.0470 0.2933 -5.2504 0.2821 -12.3031 6.7367 -2.8262 -20.6372 -6.9748 -5.8277 -2.9010 -9.0542 -8.2236 1.4178 0.0000 0.0000 12.1844 -10.8988 7.3137 -5.6836 0.0000 -0.0000 -0.0000 -0.0000 0.0000 0.0000 -7.7107 8.4085 4.4059 -3.1187 7.2830 -10.5182 -0.0000 -0.0000 -2.4124 -4.1683 -6.8678 9.7683 0.0000 0.0000 0.0000 0.0000 -0.0000 0.0000 -4.6251 1.2271 -8.7165 4.1186 0.0000 0.0000 -4.6917 1.8144 18.1668 -0.9516 0.0000 -0.0000 -4.1271 -0.3308 1.8659 0.0642 0.0000 0.0000 -3.1096 -0.1870 12.1874 -0.0896 0.0000 -0.0000
 1.9150 -2.4037 25.0569 -4.1940 1.5724 170.3180 -0.0967 1.8149 0.3550 0.5002 -1.4405 0.0595 3.6490 4.5465 5.4515 -1.4440 0.0401 0.2961 -5.2273 0.2790 -12.3068 6.7427 -2.8300 -20.6416 -6.9701 -5.7979 -2.8999 -9.0583 -8.2470 1.3992 0.0000 0.0000 12.1548 -10.9097 7.2972 -5.6673 0.0000 0.0000 -0.0000 -0.0000 0.0000 0.0000 -7.6979 8.3736 4.3905 -3.1103 7.3244 -10.5057 -0.0000 -0.0000 -2.4026 -4.1218 -6.8760 9.7815 0.0000 -0.0000 0.0000 0.0000 0.0000 0.0000 -4.6518 1.2133 -8.7182 4.0992 0.0000 0.0000 -4.6619 1.8069 18.1512 -0.9643 0.0000 -0.0000 -4.1564 -0.3412 1.8724 0.0670 0.0000 0.0000 -3.0956 -0.1869 12.1886 -0.1112 0.0000 -0.0000
 1.9154 -2.4087 25.0571 -4.2034 1.5652 170.3107 -0.0759 1.8143 0.3523 0.5061 -1.4281 0.0610 3.6223 4.5233 5.4466 -1.4446 0.0318 0.2991 -5.2036 0.2766 -12.3107 6.7499 -2.8349 -20.6460 -6.9665 -5.7597 -2.8967 -9.0610 -8.2784 1.3770 0.0000 0.0000 12.1247 -10.9177 7.2806 -5.6477 0.0000 -0.0000 -0.0000 -0.0000 0.0000 0.0000 -7.6819 8.3317 4.3756 -3.1044 7.3738 -10.4945 -0.0000 -0.0000 -2.3877 -4.0734 -6.8830 9.7932 0.0000 -0.0000 -0.0000 0.0000 0.0000 0.0000 -4.6672 1.1973 -8.7221 4.0756 0.0000 0.0000 -4.6291 1.7985 18.1357 -0.9785 0.0000 -0.0000 -4.1755 -0.3536 1.8794 0.0683 0.0000 0.0000 -3.0819 -0.1820 12.1891 -0.1376 0.0000 -0.0000
 1.9158 -2.4138 25.0574 -4.2093 1.5582 170.3025 -0.0504 1.8154 0.3502 0.5116 -1.4162 0.0625 3.5959 4.5000 5.4409 -1.4458 0.0227 0.3025 -5.1811 0.2738 -12.3151 6.7582 -2.8402 -20.6506 -6.9600 -5.7200 -2.8952 -9.0624 -8.3104 1.3587 0.0000 0.0000 12.0937 -10.9245 7.2618 -5.6298 -0.0000 -0.0000 0.0000 0.0000 -0.0000 -0.0000 -7.6631 8.2854 4.3596 -3.1013 7.4265 -10.4825 -0.0000 -0.0000 -2.3709 -4.0267 -6.8874 9.8053 -0.0000 0.0000 -0.0000 0.0000 0.0000 0.0000 -4.6802 1.1820 -8.7263 4.0537 0.0000 0.0000 -4.5965 1.7898 18.1204 -0.9930 0.0000 -0.0000 -4.1908 -0.3653 1.8884 0.0693 0.0000 0.0000 -3.0678 -0.1730 12.1888 -0.1662 0.0000 -0.0000
 1.9160 -2.4199 25.0577 -4.2377 1.5551 170.2945 -0.0446 1.8136 0.3485 0.5139 -1.3942 0.0665 3.5727 4.4671 5.4319 -1.4472 0.0163 0.3059 -5.1616 0.2690 -12.3194 6.7643 -2.8440 -20.6544 -6.9504 -5.6903 -2.8932 -9.0649 -8.3302 1.3448 0.0000 0.0000 12.0633 -10.9332 7.2385 -5.6124 -0.0000 0.0000 0.0000 0.0000 0.0000 0.0000 -7.6447 8.2424 4.3410 -3.1017 7.4727 -10.4652 -0.0000 -0.0000 -2.3550 -3.9834 -6.8865 9.8162 -0.0000 0.0000 -0.0000 0.0000 -0.0000 -0.0000 -4.7256 1.1675 -8.7279 4.0430 0.0000 0.0000 -4.5651 1.7818 18.1027 -1.0075 0.0000 -0.0000 -4.2380 -0.3774 1.9011 0.0807 0.0000 0.0000 -3.0557 -0.1605 12.1854 -0.1960 0.0000 -0.0000
 1.9165 -2.4252 25.0580 -4.2450 1.5462 170.2886 -0.0204 1.8151 0.3440 0.5198 -1.3794 0.0683 3.5485 4.4389 5.4241 -1.4486 0.0049 0.3095 -5.1430 0.2676 -12.3233 6.7717 -2.8484 -20.6570 -6.9424 -5.6471 -2.8883 -9.0647 -8.3627 1.3268 0.0000 0.0000 12.0370 -10.9367 7.2210 -5.5961 -0.0000 -0.0000 0.0000 -0.0000 -0.0000 -0.0000 -7.6218 8.1940 4.3254 -3.1068 7.5256 -10.4518 -0.0000 -0.0000 -2.3349 -3.9468 -6.8840 9.8198 0.0000 0.0000 -0.0000 -0.0000 -0.0000 0.0000 -4.7417 1.1501 -8.7346 4.0241 0.0000 0.0000 -4.5311 1.7729 18.0874 -1.0238 0.0000 -0.0000 -4.2587 -0.3919 1.9112 0.0879 0.0000 0.0000 -3.0450 -0.1448 12.1819 -0.2264 0.0000 -0.0000
 1.9169 -2.4303 25.0584 -4.2486 1.5404 170.2806 0.0078 1.8198 0.3417 0.5249 -1.3664 0.0694 3.5239 4.4127 5.4159 -1.4501 -0.0056 0.3134 -5.1252 0.2642 -12.3269 6.7777 -2.8507 -20.6585 -6.9277 -5.6114 -2.8841 -9.0658 -8.3859 1.3149 0.0000 0.0000 12.0123 -10.9438 7.2007 -5.5821 -0.0000 -0.0000 0.0000 0.0000 -0.0000 -0.0000 -7.5971 8.1445 4.3065 -3.1141 7.5757 -10.4322 -0.0000 -0.0000 -2.3185 -3.9195 -6.8794 9.8207 0.0000 0.0000 0.0000 0.0000 -0.0000 0.0000 -4.7573 1.1372 -8.7370 4.0109 0.0000 0.0000 -4.5010 1.7641 18.0709 -1.0380 0.0000 -0.0000 -4.2745 -0.4023 1.9252 0.0921 0.0000 0.0000 -3.0326 -0.1282 12.1770 -0.2533 0.0000 -0.0000
 1.9171 -2.4361 25.0587 -4.2716 1.5391 170.2732 0.0175 1.8244 0.3395 0.5281 -1.3507 0.0712 3.5026 4.3838 5.4062 -1.4521 -0.0145 0.3171 -5.1126 0.2593 -12.3293 6.7814 -2.8501 -20.6579 -6.9135 -5.5799 -2.8807 -9.0666 -8.4054 1.3085 0.0000 0.0000 11.9895 -10.9512 7.1825 -5.5694 0.0000 0.0000 -0.0000 0.0000 0.0000 0.0000 -7.5727 8.0985 4.2906 -3.1231 7.6190 -10.4151 -0.0000 -0.0000 -2.3024 -3.9042 -6.8725 9.8147 -0.0000 0.0000 -0.0000 0.0000 -0.0000 -0.0000 -4.8010 1.1263 -8.7381 4.0088 0.0000 0.0000 -4.4740 1.7561 18.0541 -1.0509 0.0000 -0.0000 -4.3178 -0.4116 1.9405 0.1054 0.0000 0.0000 -3.0222 -0.1121 12.1710 -0.2769 0.0000 -0.0000
 1.9175 -2.4409 25.0591 -4.2723 1.5316 170.2671 0.0467 1.8277 0.3356 0.5342 -1.3346 0.0730 3.4803 4.3533 5.3957 -1.4542 -0.0242 0.3207 -5.0994 0.2558 -12.3303 6.7843 -2.8482 -20.6559 -6.8991 -5.5413 -2.8741 -9.0660 -8.4310 1.2985 0.0000 0.0000 11.9734 -10.9579 7.1689 -5.5601 0.0000 -0.0000 -0.0000 -0.0000 0.0000 0.0000 -7.5474 8.0486 4.2734 -3.1305 7.6649 -10.3929 -0.0000 -0.0000 -2.2919 -3.9005 -6.8684 9.8047 -0.0000 0.0000 0.0000 0.0000 -0.0000 0.0000 -4.8130 1.1124 -8.7412 3.9969 0.0000 0.0000 -4.4445 1.7472 18.0382 -1.0635 0.0000 -0.0000 -4.3315 -0.4233 1.9532 0.1116 0.0000 0.0000 -3.0123 -0.0968 12.1654 -0.2967 0.0000 -0.0000
